HIERARCHY
ROOT Hips
{
	OFFSET 0.000000 0.000000 0.000000
	CHANNELS 6 Xposition Yposition Zposition Xrotation Yrotation Zrotation
	JOINT LeftUpLeg_virtual
	{
		OFFSET 0.000000 0.000000 0.000000
		CHANNELS 3 Xrotation Yrotation Zrotation
		JOINT LeftUpLeg
		{
			OFFSET 13.026900 -6.336304 -1.092800
			CHANNELS 3 Xrotation Yrotation Zrotation
			JOINT LeftLeg
			{
				OFFSET 0.524474 -46.096886 9.782700
				CHANNELS 3 Xrotation Yrotation Zrotation
				JOINT LeftFoot
				{
					OFFSET -0.524474 -53.427422 -12.948200
					CHANNELS 3 Xrotation Yrotation Zrotation
					JOINT LeftToeBase
					{
						OFFSET 0.192200 -14.009700 16.364100
						CHANNELS 3 Xrotation Yrotation Zrotation
						JOINT LeftToe_End
						{
							OFFSET -1.784700 -0.561700 9.474800
							CHANNELS 3 Xrotation Yrotation Zrotation
							End Site
							{
								OFFSET 0 0 0
							}
						}
					}
				}
			}
		}
	}
	JOINT RightUpLeg_virtual
	{
		OFFSET 0.000000 0.000000 0.000000
		CHANNELS 3 Xrotation Yrotation Zrotation
		JOINT RightUpLeg
		{
			OFFSET -12.883000 -6.336304 -1.092800
			CHANNELS 3 Xrotation Yrotation Zrotation
			JOINT RightLeg
			{
				OFFSET -0.524587 -46.096825 9.782800
				CHANNELS 3 Xrotation Yrotation Zrotation
				JOINT RightFoot
				{
					OFFSET 0.524587 -53.427383 -12.948300
					CHANNELS 3 Xrotation Yrotation Zrotation
					JOINT RightToeBase
					{
						OFFSET -0.192200 -14.009700 16.364100
						CHANNELS 3 Xrotation Yrotation Zrotation
						JOINT RightToe_End
						{
							OFFSET 1.784700 -0.561700 9.474800
							CHANNELS 3 Xrotation Yrotation Zrotation
							End Site
							{
								OFFSET 0 0 0
							}
						}
					}
				}
			}
		}
	}
	JOINT Spine_virtual
	{
		OFFSET 0.000000 0.000000 0.000000
		CHANNELS 3 Xrotation Yrotation Zrotation
		JOINT Spine
		{
			OFFSET 0.072000 7.257294 -0.789700
			CHANNELS 3 Xrotation Yrotation Zrotation
			JOINT Spine1
			{
				OFFSET 0.000000 12.508769 -0.658067
				CHANNELS 3 Xrotation Yrotation Zrotation
				JOINT Spine1_split
				{
					OFFSET 0.000000 12.508769 -0.658067
					CHANNELS 3 Xrotation Yrotation Zrotation
					JOINT Spine2
					{
						OFFSET 0.000000 12.508769 -0.658067
						CHANNELS 3 Xrotation Yrotation Zrotation
						JOINT Neck_virtual
						{
							OFFSET 0.000000 0.000000 0.000000
							CHANNELS 3 Xrotation Yrotation Zrotation
							JOINT Neck
							{
								OFFSET 0.000000 14.033295 7.520400
								CHANNELS 3 Xrotation Yrotation Zrotation
								JOINT Head
								{
									OFFSET 0.000000 8.198502 5.703100
									CHANNELS 3 Xrotation Yrotation Zrotation
									JOINT HeadTop_End
									{
										OFFSET 0.000000 17.760803 13.332701
										CHANNELS 3 Xrotation Yrotation Zrotation
										End Site
										{
											OFFSET 0 0 0
										}
									}
								}
							}
						}
						JOINT LeftShoulder_virtual
						{
							OFFSET 0.000000 0.000000 0.000000
							CHANNELS 3 Xrotation Yrotation Zrotation
							JOINT LeftShoulder
							{
								OFFSET 6.292450 5.785301 -0.669000
								CHANNELS 3 Xrotation Yrotation Zrotation
								JOINT LeftShoulder_split
								{
									OFFSET 6.292450 5.785301 -0.669000
									CHANNELS 3 Xrotation Yrotation Zrotation
									JOINT LeftArm
									{
										OFFSET 13.907140 -6.093903 1.965100
										CHANNELS 3 Xrotation Yrotation Zrotation
										JOINT LeftForeArm
										{
											OFFSET 34.140198 0.000000 0.000000
											CHANNELS 3 Xrotation Yrotation Zrotation
											JOINT LeftHand
											{
												OFFSET 40.960209 0.000000 0.000000
												CHANNELS 3 Xrotation Yrotation Zrotation
												End Site
												{
													OFFSET 0 0 0
												}
											}
										}
									}
								}
							}
						}
						JOINT RightShoulder_virtual
						{
							OFFSET 0.000000 0.000000 0.000000
							CHANNELS 3 Xrotation Yrotation Zrotation
							JOINT RightShoulder
							{
								OFFSET -6.292450 5.785301 -0.669000
								CHANNELS 3 Xrotation Yrotation Zrotation
								JOINT RightShoulder_split
								{
									OFFSET -6.292450 5.785301 -0.669000
									CHANNELS 3 Xrotation Yrotation Zrotation
									JOINT RightArm
									{
										OFFSET -13.907140 -6.093903 1.965100
										CHANNELS 3 Xrotation Yrotation Zrotation
										JOINT RightForeArm
										{
											OFFSET -34.140198 0.000000 0.000000
											CHANNELS 3 Xrotation Yrotation Zrotation
											JOINT RightHand
											{
												OFFSET -40.960209 0.000000 0.000000
												CHANNELS 3 Xrotation Yrotation Zrotation
												End Site
												{
													OFFSET 0 0 0
												}
											}
										}
									}
								}
							}
						}
					}
				}
			}
		}
	}
}
MOTION
Frames: 10
Frame Time: 0.03333333
-1.191478 111.952988 1.125156 0.000000 0.000000 0.000000 -2.337675 -0.330442 -0.802162 -9.899400 3.856522 9.774653 21.776511 4.829780 1.910578 -10.634573 1.800528 -11.536127 1.584809 0.263007 -1.127758 0.000000 0.000000 0.000000 -2.082937 0.006905 -0.820481 -8.563145 1.576028 -3.166255 23.266645 -1.274990 -2.192800 -9.841639 -0.774665 5.817888 3.199263 0.185505 0.389513 0.000000 0.000000 0.000000 -2.104056 -1.582858 -1.018147 0.826531 -0.886064 0.246536 -1.123944 -0.306943 0.599991 1.193742 0.143578 -0.004707 0.000000 0.000000 0.000000 -1.598723 -0.018780 0.534932 -0.370107 0.560091 -0.996485 4.500843 -2.332796 2.535139 0.000000 0.000000 0.000000 -1.586304 0.140890 0.293421 1.360190 -10.758765 -10.356027 -2.869943 0.549336 -1.935115 20.535350 -21.717392 -65.751253 -1.129447 -19.513589 0.812759 0.000000 0.000000 0.000000 -1.141548 0.144567 0.490658 1.639654 5.556129 10.920644 -0.654644 3.129950 -1.960267 6.094550 23.462299 66.361647 0.572488 16.333257 0.632223 0.000000 0.000000 0.000000 
-0.893737 112.177780 1.185040 0.000000 0.000000 0.000000 -2.239735 -0.311419 -0.779803 -9.829411 3.492355 9.678904 21.636105 4.984840 1.934952 -10.521838 2.043624 -11.238292 1.495639 0.293315 -1.153865 0.000000 0.000000 0.000000 -2.042491 -0.112848 -0.819319 -8.203710 1.525365 -3.232486 22.633958 -1.268460 -2.321672 -9.404539 -0.752619 5.410389 2.083220 0.105421 0.545374 0.000000 0.000000 0.000000 -1.909162 -1.683007 -1.070540 0.575556 -0.817162 0.316834 -1.077462 -0.317151 0.604434 1.191592 0.323389 0.076235 0.000000 0.000000 0.000000 -1.599003 -0.038006 0.553334 -0.401774 0.655717 -0.999696 4.431983 -2.351328 2.421453 0.000000 0.000000 0.000000 -1.577404 0.145863 0.298854 1.371531 -10.812239 -10.461582 -2.785046 0.517853 -1.868268 20.544374 -21.806321 -65.771313 -1.112403 -19.553840 0.701972 0.000000 0.000000 0.000000 -1.119772 0.139712 0.486725 1.639690 5.713959 10.992097 -0.586548 3.223742 -1.969845 6.261054 23.651287 66.192524 0.621293 16.297960 0.636676 0.000000 0.000000 0.000000 
-0.641627 112.418449 1.262566 0.000000 0.000000 0.000000 -2.306791 -0.328297 -0.761621 -9.852921 3.360786 9.504207 21.452883 5.280788 2.001460 -10.286733 2.185687 -10.859066 1.394424 0.341758 -1.106324 0.000000 0.000000 0.000000 -2.003404 -0.143546 -0.849545 -7.653632 1.433804 -3.329391 21.924009 -1.267096 -2.469524 -9.698630 -0.608710 4.459724 1.636318 0.088810 0.619144 0.000000 0.000000 0.000000 -1.685791 -1.781276 -1.146336 0.430017 -0.718000 0.453652 -0.990812 -0.309403 0.584300 1.200904 0.333121 0.086302 0.000000 0.000000 0.000000 -1.548421 -0.051761 0.548642 -0.400229 0.804809 -1.055209 4.154580 -2.338817 2.337911 0.000000 0.000000 0.000000 -1.540219 0.160734 0.274939 1.382425 -10.916110 -10.584017 -2.745410 0.682425 -1.769002 20.477370 -21.819022 -65.781019 -1.068319 -19.771922 0.587901 0.000000 0.000000 0.000000 -1.060738 0.131827 0.454517 1.679151 5.845658 11.039386 -0.453634 3.336773 -2.019694 6.586150 24.075695 65.758302 0.700799 16.425365 0.620294 0.000000 0.000000 0.000000 
-0.430143 112.558701 1.294788 0.000000 0.000000 0.000000 -2.434346 -0.405745 -0.735193 -9.960327 3.531607 9.222292 21.255129 5.715618 2.086945 -10.061283 2.224045 -10.501044 1.329372 0.399970 -0.989745 0.000000 0.000000 0.000000 -1.896912 -0.111109 -0.853865 -7.279860 1.284024 -3.519770 21.415935 -1.173429 -2.533960 -10.340147 -0.374967 3.395547 1.777485 0.131079 0.584295 0.000000 0.000000 0.000000 -1.483491 -1.867097 -1.203651 0.415982 -0.622479 0.611983 -0.864729 -0.275079 0.544071 1.132239 0.261570 -0.012723 0.000000 0.000000 0.000000 -1.451037 -0.049188 0.524381 -0.388993 0.970835 -1.142602 3.660603 -2.304556 2.313745 0.000000 0.000000 0.000000 -1.481029 0.189105 0.224524 1.384208 -11.062836 -10.712745 -2.805515 0.910292 -1.696621 20.391342 -21.833471 -65.654340 -1.014617 -20.098872 0.459489 0.000000 0.000000 0.000000 -0.972752 0.130006 0.397955 1.755816 5.953018 11.045754 -0.275272 3.440719 -2.075924 6.940829 24.645945 65.167989 0.782435 16.665250 0.597441 0.000000 0.000000 0.000000 
-0.252828 112.576157 1.284103 0.000000 0.000000 0.000000 -2.465900 -0.623810 -0.713984 -10.270304 3.917531 8.888287 21.149377 6.286697 2.189401 -9.975285 2.197103 -10.237827 1.320321 0.449957 -0.808935 0.000000 0.000000 0.000000 -1.640096 -0.100793 -0.834466 -7.276753 1.093121 -3.765096 21.030986 -0.731309 -2.512377 -10.930497 -0.094190 2.936399 1.448837 0.180802 0.409544 0.000000 0.000000 0.000000 -1.243556 -1.935061 -1.274194 0.516087 -0.555376 0.745610 -0.698786 -0.220070 0.489371 1.003780 0.095620 -0.101492 0.000000 0.000000 0.000000 -1.308976 -0.024608 0.488006 -0.408246 1.106116 -1.227658 2.963305 -2.273806 2.411435 0.000000 0.000000 0.000000 -1.385012 0.234877 0.161886 1.371792 -11.261471 -10.816051 -2.869716 1.052863 -1.825980 20.319015 -21.926897 -65.317263 -0.953048 -20.521143 0.322241 0.000000 0.000000 0.000000 -0.853601 0.142619 0.333873 1.856090 6.079180 11.025053 -0.097457 3.540795 -2.153317 7.179236 25.294306 64.561147 0.828005 16.977697 0.576239 0.000000 0.000000 0.000000 
-0.106644 112.479012 1.184193 0.000000 0.000000 0.000000 -2.267457 -0.934317 -0.730260 -10.813342 4.327769 8.607254 21.271875 6.920650 2.309545 -10.033182 2.141244 -10.184764 1.293711 0.473546 -0.564725 0.000000 0.000000 0.000000 -1.226091 -0.242074 -0.853862 -7.724453 0.971732 -3.942453 20.792530 0.011917 -2.426760 -11.265014 0.094473 3.269189 0.453130 0.198948 0.153296 0.000000 0.000000 0.000000 -0.930954 -2.028505 -1.428992 0.690243 -0.537248 0.822127 -0.509994 -0.153921 0.423882 0.890513 -0.067505 -0.045178 0.000000 0.000000 0.000000 -1.122772 0.023536 0.445798 -0.486996 1.184445 -1.290745 2.088989 -2.293593 2.677296 0.000000 0.000000 0.000000 -1.247058 0.291842 0.103379 1.339821 -11.519631 -10.864973 -2.819154 1.076249 -2.080807 20.202224 -22.072012 -64.767849 -0.879125 -20.996415 0.188378 0.000000 0.000000 0.000000 -0.702165 0.175829 0.272128 1.958150 6.282024 10.970020 0.090248 3.641587 -2.221695 7.203535 26.003642 64.033119 0.819283 17.326983 0.567773 0.000000 0.000000 0.000000 
0.008365 112.336571 0.920616 0.000000 0.000000 0.000000 -1.799869 -1.535120 -0.857972 -11.570438 4.565702 8.548443 21.768520 7.615792 2.452776 -10.178533 2.173824 -10.399468 1.213898 0.460005 -0.283171 0.000000 0.000000 0.000000 -0.718716 -0.763482 -0.986305 -8.614673 0.953474 -3.940950 20.707549 0.750983 -2.261193 -11.274837 0.026358 4.040488 -0.622033 0.159265 -0.013729 0.000000 0.000000 0.000000 -0.479105 -2.183454 -1.687370 0.892849 -0.546298 0.821022 -0.292678 -0.085977 0.363675 0.858745 -0.104295 0.037839 0.000000 0.000000 0.000000 -0.890329 0.083366 0.397229 -0.625665 1.162747 -1.298765 1.087479 -2.432053 3.167116 0.000000 0.000000 0.000000 -1.052814 0.347052 0.057052 1.295530 -11.844510 -10.842239 -2.594660 0.999310 -2.293996 19.819534 -22.168494 -64.097179 -0.757566 -21.492940 0.092173 0.000000 0.000000 0.000000 -0.510435 0.217540 0.219356 2.045595 6.603079 10.905362 0.268555 3.655459 -2.244417 6.985176 26.804577 63.629346 0.763361 17.691045 0.560224 0.000000 0.000000 0.000000 
0.086106 112.196381 0.357956 0.000000 0.000000 0.000000 -1.170826 -2.302982 -1.175518 -12.629605 4.472545 8.881628 22.722532 8.373823 2.594603 -10.393670 2.391836 -10.838271 1.096324 0.411130 -0.001168 0.000000 0.000000 0.000000 -0.224115 -1.669036 -1.327632 -9.979304 1.091379 -3.631977 20.833774 1.223940 -2.046952 -11.194541 -0.365137 4.832899 -0.954143 0.048865 0.030836 0.000000 0.000000 0.000000 0.155602 -2.567371 -2.088322 1.124819 -0.548523 0.742933 -0.049616 -0.032765 0.312650 0.924615 -0.077437 0.087358 0.000000 0.000000 0.000000 -0.609216 0.141661 0.329762 -0.778345 1.041520 -1.198751 0.018076 -2.709635 3.909331 0.000000 0.000000 0.000000 -0.788533 0.397464 0.017160 1.254519 -12.240944 -10.736216 -2.313393 0.957050 -2.445340 19.001106 -22.011574 -63.418382 -0.603312 -22.010457 0.040001 0.000000 0.000000 0.000000 -0.261843 0.263634 0.170070 2.102097 7.067995 10.827754 0.442608 3.664620 -2.261711 6.566342 27.743229 63.280869 0.671265 18.160134 0.552933 0.000000 0.000000 0.000000 
0.112497 111.935165 -0.390701 0.000000 0.000000 0.000000 -0.486011 -3.252421 -1.732344 -13.973447 3.957352 9.698177 24.185717 9.083271 2.682405 -10.622097 2.805455 -11.561537 0.984942 0.338225 0.237157 0.000000 0.000000 0.000000 0.248112 -2.889922 -1.913834 -11.839637 1.434954 -2.955649 21.455824 1.283440 -1.766198 -10.962938 -0.933405 5.491006 -0.468502 -0.089954 0.254060 0.000000 0.000000 0.000000 0.928926 -3.343526 -2.618747 1.412907 -0.527409 0.594107 0.231073 0.013750 0.254841 1.042126 -0.055232 0.143595 0.000000 0.000000 0.000000 -0.283066 0.195754 0.226274 -0.880368 0.828038 -0.952202 -1.037243 -3.117842 4.878341 0.000000 0.000000 0.000000 -0.459428 0.438072 -0.040240 1.227949 -12.707522 -10.580468 -2.106548 1.006979 -2.557754 17.819810 -21.499106 -62.787723 -0.442394 -22.655090 0.018157 0.000000 0.000000 0.000000 0.043700 0.307237 0.098288 2.129107 7.693150 10.756456 0.620050 3.684012 -2.280146 6.033272 28.808427 62.830043 0.576976 18.800649 0.547297 0.000000 0.000000 0.000000 
0.031047 111.470032 -1.214783 0.000000 0.000000 0.000000 0.229520 -4.393421 -2.506970 -15.533336 3.142926 10.975681 26.132396 9.706522 2.627319 -10.964002 3.412274 -12.481103 0.988836 0.257820 0.383743 0.000000 0.000000 0.000000 0.650064 -4.337751 -2.684439 -14.102923 1.937756 -1.953320 22.513579 1.113481 -1.474978 -10.446112 -1.347107 6.375141 0.103429 -0.198411 0.423748 0.000000 0.000000 0.000000 1.706581 -4.566446 -3.258500 1.793639 -0.489561 0.381382 0.552597 0.054527 0.153267 1.158244 -0.079780 0.153470 0.000000 0.000000 0.000000 0.078459 0.249114 0.073079 -0.869251 0.568492 -0.557538 -1.969471 -3.646840 6.012175 0.000000 0.000000 0.000000 -0.096692 0.471268 -0.139972 1.214135 -13.228673 -10.393966 -2.027179 1.011976 -2.597085 16.536632 -20.587128 -62.264981 -0.307552 -23.728366 0.017442 0.000000 0.000000 0.000000 0.385899 0.337002 -0.019182 2.142107 8.458137 10.711387 0.809329 3.728240 -2.331582 5.441303 29.887798 62.189405 0.510086 19.631391 0.535284 0.000000 0.000000 0.000000 
